<?xml version="1.0" encoding="iso-8859-1"?>
<!-- Generator: Adobe Illustrator 16.0.0, SVG Export Plug-In . SVG Version: 6.00 Build 0)  -->
<!DOCTYPE svg PUBLIC "-//W3C//DTD SVG 1.1//EN" "http://www.w3.org/Graphics/SVG/1.1/DTD/svg11.dtd">
<svg version="1.1" id="Capa_1" xmlns="http://www.w3.org/2000/svg" xmlns:xlink="http://www.w3.org/1999/xlink" x="0px" y="0px"
	 width="341.169px" height="341.168px" viewBox="0 0 341.169 341.168" style="enable-background:new 0 0 341.169 341.168;"
	 xml:space="preserve">
<g>
	<g>
		<path d="M170.582,304.576c73.886,0,133.994-60.108,133.994-133.991c0-73.886-60.113-133.991-133.994-133.991
			c-73.877,0-133.988,60.105-133.988,133.991C36.593,244.467,96.698,304.576,170.582,304.576z M164.433,49.204v27.703
			c0,3.393,2.756,6.148,6.149,6.148c3.396,0,6.149-2.756,6.149-6.148V49.204c62.188,3.131,112.101,53.049,115.235,115.232h-27.707
			c-3.398,0-6.148,2.756-6.148,6.149s2.75,6.148,6.148,6.148h27.707c-3.135,62.186-53.047,112.098-115.235,115.232v-27.706
			c0-3.387-2.753-6.149-6.149-6.149c-3.393,0-6.149,2.763-6.149,6.149v27.706c-62.189-3.135-112.101-53.047-115.235-115.232h27.706
			c3.396,0,6.149-2.756,6.149-6.148s-2.753-6.149-6.149-6.149H49.197C52.332,102.253,102.244,52.335,164.433,49.204z"/>
		<path d="M170.582,341.168c94.062,0,170.587-76.525,170.587-170.584C341.169,76.525,264.644,0,170.582,0
			C76.522,0,0,76.525,0,170.584C0,264.643,76.522,341.168,170.582,341.168z M170.582,12.298c87.277,0,158.29,71.009,158.29,158.286
			c0,87.273-71.013,158.286-158.29,158.286S12.298,257.858,12.298,170.584C12.298,83.308,83.299,12.298,170.582,12.298z"/>
		<path d="M151.916,154.296c-3.825,4.377-6.224,10.028-6.224,16.288c0,7.896,3.771,14.861,9.518,19.426l-19.281,43.858
			c-1.366,3.104,0.042,6.743,3.155,8.101c0.805,0.36,1.646,0.528,2.471,0.528c2.366,0,4.618-1.369,5.632-3.675l19.239-43.775
			c1.36,0.229,2.729,0.421,4.149,0.421c13.725,0,24.887-11.157,24.887-24.884c0-1.087-0.186-2.129-0.318-3.186l69.92-19.197
			c1.634-0.447,2.595-2.138,2.15-3.774c-0.451-1.642-2.162-2.605-3.777-2.152l-69.764,19.152
			c-3.657-9.196-12.604-15.732-23.091-15.732c-3.012,0-5.87,0.618-8.545,1.603l-43.265-65.687c-1.865-2.832-5.668-3.624-8.515-1.753
			c-2.837,1.868-3.624,5.681-1.753,8.515L151.916,154.296z M183.171,170.584c0,6.941-5.645,12.586-12.589,12.586
			c-6.942,0-12.592-5.645-12.592-12.586s5.645-12.586,12.586-12.586C177.52,157.999,183.171,163.643,183.171,170.584z"/>
	</g>
</g>
<g>
</g>
<g>
</g>
<g>
</g>
<g>
</g>
<g>
</g>
<g>
</g>
<g>
</g>
<g>
</g>
<g>
</g>
<g>
</g>
<g>
</g>
<g>
</g>
<g>
</g>
<g>
</g>
<g>
</g>
</svg>
